<svg width="51" height="50" viewBox="0 0 51 50" fill="none" xmlns="http://www.w3.org/2000/svg">
<path d="M6.07971 13.2304C6.07971 12.9109 5.94354 12.6041 5.67424 12.3101C5.40796 12.0135 5.06453 11.7092 4.64544 11.3948C4.22485 11.0816 3.77399 10.7403 3.28985 10.3721C2.80571 10.004 2.35335 9.5834 1.93426 9.10914C1.51367 8.63233 1.16872 8.08009 0.899415 7.45244C0.633138 6.82223 0.5 6.09998 0.5 5.28441C0.5 4.15949 0.760225 3.2212 1.28067 2.46699C1.80415 1.71023 2.48195 1.13754 3.31406 0.748929C4.14466 0.36032 5.02065 0.166016 5.94052 0.166016H13.2329V6.18434H11.3326C11.0134 6.18434 10.679 6.19841 10.328 6.22525C9.98006 6.25337 9.68806 6.34158 9.45053 6.49114C9.21602 6.63815 9.09953 6.89765 9.09953 7.26836C9.09953 7.59305 9.22359 7.87173 9.47474 8.10694C9.72891 8.33959 10.0572 8.56585 10.4612 8.787C10.8682 9.00943 11.2963 9.25998 11.7441 9.53865C12.195 9.81861 12.6232 10.1599 13.0271 10.5613C13.4296 10.964 13.7594 11.4664 14.0135 12.0697C14.2677 12.6705 14.3948 13.412 14.3948 14.294C14.3948 15.447 14.1316 16.471 13.6081 17.3671C13.0876 18.2645 12.3433 18.9663 11.375 19.4738C10.4097 19.9825 9.26293 20.2356 7.93154 20.2356H0.832846V14.2122H3.56218C4.40035 14.2122 5.02973 14.1432 5.45033 14.0025C5.86941 13.8632 6.07971 13.6063 6.07971 13.2304Z" fill="#347C01"/>
<path d="M12.7793 6.169V0.166016H28.2173V6.169H24.0597V20.2356H16.9368V6.169H12.7793Z" fill="#347C01"/>
<path d="M35.7467 20.5367C34.3986 20.5367 33.1626 20.3488 32.0369 19.9743C30.9143 19.5997 29.9385 19.068 29.1079 18.3789C28.2758 17.6912 27.6313 16.8654 27.1713 15.9041C26.7114 14.9403 26.4814 13.8741 26.4814 12.7083C26.4814 11.5706 26.7023 10.5237 27.1471 9.56876C27.5904 8.6113 28.2243 7.78422 29.0474 7.08882C29.8704 6.39341 30.8478 5.85141 31.9825 5.4628C33.1157 5.07419 34.3699 4.87988 35.7467 4.87988C37.0932 4.87988 38.3277 5.0678 39.4503 5.44234C40.576 5.81817 41.5533 6.34995 42.3854 7.03769C43.216 7.7267 43.8621 8.55377 44.322 9.51763C44.7819 10.4828 45.0119 11.5463 45.0119 12.7083C45.0119 13.8741 44.7819 14.9403 44.322 15.9041C43.8621 16.8654 43.216 17.6912 42.3854 18.3789C41.5533 19.068 40.576 19.5997 39.4503 19.9743C38.3277 20.3488 37.0932 20.5367 35.7467 20.5367ZM33.7254 12.6879C33.7254 13.1966 33.9069 13.6082 34.27 13.9253C34.6362 14.2397 35.1294 14.3957 35.7467 14.3957C36.3473 14.3957 36.8375 14.2397 37.2172 13.9253C37.6 13.6082 37.7922 13.1966 37.7922 12.6879C37.7922 12.1663 37.6 11.7496 37.2172 11.4351C36.8375 11.1219 36.3473 10.9647 35.7467 10.9647C35.1445 10.9647 34.6574 11.1219 34.2821 11.4351C33.91 11.7496 33.7254 12.1663 33.7254 12.6879Z" fill="#347C01"/>
<path d="M11.0237 49.9999H0.663086V20.8491H11.0237V30.6257L15.7864 20.8491H26.2499L18.8607 35.4373L26.2499 49.9999H15.7864L11.0237 40.2233V49.9999Z" fill="#347C01"/>
<path d="M38.3778 49.9999H27.291V20.8491H38.3778C41.1162 20.8491 43.3841 21.4627 45.18 22.6899C46.9743 23.9145 48.3148 25.6198 49.1983 27.8083C50.0849 29.9968 50.5191 32.5304 50.4995 35.4066C50.4995 38.3864 49.9805 40.9699 48.9442 43.1584C47.9063 45.3468 46.4841 47.0342 44.6777 48.2205C42.8697 49.4068 40.7698 49.9999 38.3778 49.9999ZM38.3778 29.1071H37.6153V41.4812H38.3778C38.6955 41.4812 38.9709 41.2588 39.2008 40.8114C39.4338 40.3614 39.6305 39.767 39.7879 39.0268C39.9482 38.288 40.0572 37.4813 40.1147 36.6082C40.1752 35.7326 40.1873 34.8569 40.151 33.98C40.1177 33.1044 40.0269 32.2965 39.8786 31.5563C39.7289 30.8175 39.5337 30.2243 39.2916 29.7769C39.0496 29.3308 38.7439 29.1071 38.3778 29.1071Z" fill="#347C01"/>
<path d="M38.4495 1.45217C38.3315 1.45217 38.2286 1.43939 38.1409 1.41638C38.0516 1.39337 37.9669 1.35246 37.8867 1.29366C37.8458 1.26042 37.8262 1.22463 37.8262 1.18628C37.8262 1.1556 37.8383 1.12876 37.8625 1.10447C37.8897 1.08146 37.9245 1.06868 37.9654 1.06868C37.9926 1.06868 38.0198 1.07762 38.044 1.09424C38.1076 1.13898 38.1711 1.17094 38.2316 1.19139C38.2922 1.21185 38.3648 1.22207 38.4495 1.22207C38.5373 1.22207 38.6144 1.20546 38.6795 1.17094C38.743 1.1377 38.7763 1.09424 38.7763 1.04311C38.7763 0.981749 38.743 0.934452 38.6795 0.899937C38.6144 0.866701 38.513 0.841134 38.3769 0.823238C38.0259 0.779775 37.8504 0.642995 37.8504 0.414176C37.8504 0.329806 37.8761 0.255664 37.9291 0.194305C37.9805 0.130389 38.0516 0.0818125 38.1409 0.0511328C38.2332 0.0178966 38.336 0 38.4495 0C38.5494 0 38.6447 0.0140616 38.7339 0.0409062C38.8217 0.0651944 38.8943 0.0971523 38.9518 0.138059C39.0002 0.168738 39.0244 0.204531 39.0244 0.245437C39.0244 0.276117 39.0093 0.30424 38.9821 0.32725C38.9533 0.351538 38.9215 0.363043 38.8852 0.363043C38.861 0.363043 38.8398 0.356651 38.8247 0.34259C38.7793 0.315745 38.7218 0.290179 38.6492 0.26589C38.5766 0.242881 38.51 0.230098 38.4495 0.230098C38.3481 0.230098 38.2695 0.247994 38.2135 0.28123C38.1605 0.31191 38.1348 0.352816 38.1348 0.403949C38.1348 0.462752 38.162 0.506215 38.2195 0.536894C38.2755 0.565017 38.3648 0.586749 38.4858 0.603367C38.622 0.62382 38.7309 0.651943 38.8126 0.685179C38.8928 0.715859 38.9533 0.759322 38.9942 0.813011C39.038 0.867979 39.0607 0.939565 39.0607 1.02777C39.0607 1.11342 39.032 1.18884 38.976 1.25275C38.9185 1.31795 38.8429 1.3678 38.746 1.40104C38.6522 1.43427 38.5539 1.45217 38.4495 1.45217Z" fill="#292929"/>
<path d="M40.6534 0.0153809C40.6927 0.0153809 40.7275 0.0281642 40.7563 0.0511738C40.788 0.075462 40.8047 0.104863 40.8047 0.1381V1.30904C40.8047 1.34355 40.7896 1.37296 40.7623 1.39597C40.7336 1.42025 40.6973 1.43176 40.6534 1.43176C40.608 1.43176 40.5717 1.42153 40.5445 1.40108C40.5203 1.37807 40.5082 1.34739 40.5082 1.30904V0.496029L40.1087 1.00224C40.0921 1.02014 40.0739 1.03292 40.0543 1.04315C40.0331 1.05338 40.0134 1.05849 39.9938 1.05849C39.9696 1.05849 39.9469 1.05338 39.9272 1.04315C39.906 1.03292 39.8879 1.02014 39.8727 1.00224L39.4794 0.475576V1.30904C39.4794 1.34739 39.4642 1.37807 39.437 1.40108C39.4128 1.42153 39.3795 1.43176 39.3402 1.43176C39.2993 1.43176 39.2675 1.42025 39.2433 1.39597C39.2191 1.37296 39.207 1.34355 39.207 1.30904V0.1381C39.207 0.104863 39.2206 0.075462 39.2494 0.0511738C39.2766 0.0281642 39.3129 0.0153809 39.3583 0.0153809C39.378 0.0153809 39.4007 0.0204941 39.4249 0.0307207C39.4491 0.0409472 39.4673 0.0550088 39.4794 0.0716269L40.0059 0.74658L40.5384 0.0716269C40.5505 0.0550088 40.5656 0.0409472 40.5868 0.0307207C40.611 0.0204941 40.6322 0.0153809 40.6534 0.0153809Z" fill="#292929"/>
<path d="M42.3405 1.27329C42.3481 1.29119 42.3526 1.3078 42.3526 1.32442C42.3526 1.35894 42.3375 1.38834 42.3102 1.41135C42.286 1.4318 42.2558 1.44203 42.2195 1.44203C42.1907 1.44203 42.165 1.43436 42.1408 1.42157C42.1196 1.40496 42.1045 1.3845 42.0924 1.36022L41.9653 1.11478H41.2512L41.1301 1.36022C41.118 1.38834 41.0999 1.40879 41.0757 1.42157C41.0545 1.43436 41.0303 1.44203 41.0031 1.44203C40.9622 1.44203 40.9304 1.43308 40.9062 1.41646C40.8851 1.39601 40.876 1.36916 40.876 1.33465C40.876 1.32442 40.8775 1.31292 40.882 1.29886L41.4751 0.0921222C41.4902 0.0652776 41.5114 0.0448245 41.5356 0.0307629C41.5598 0.0141448 41.5871 0.00775327 41.6203 0.0103097C41.6476 0.0103097 41.6748 0.0179798 41.699 0.0307629C41.7262 0.0448245 41.7444 0.0652776 41.7535 0.0921222L42.3405 1.27329ZM41.3722 0.88468H41.8503L41.6082 0.409145L41.3722 0.88468Z" fill="#292929"/>
<path d="M43.7369 1.23234C43.7611 1.24257 43.7792 1.25791 43.7913 1.27836C43.8034 1.29626 43.8095 1.31288 43.8095 1.32949C43.8095 1.35378 43.7989 1.37551 43.7792 1.39597C43.755 1.42025 43.7187 1.43176 43.6703 1.43176C43.6294 1.43176 43.5931 1.42537 43.5614 1.41131C43.4479 1.35762 43.3919 1.24512 43.3919 1.07383C43.3919 1.02653 43.3707 0.98946 43.3314 0.961337C43.2951 0.930658 43.2421 0.915318 43.1741 0.915318H42.7262V1.30904C42.7262 1.34739 42.7141 1.37807 42.6899 1.40108C42.6687 1.42153 42.6385 1.43176 42.5991 1.43176C42.5537 1.43176 42.5144 1.42025 42.4781 1.39597C42.4448 1.37296 42.4297 1.34355 42.4297 1.30904V0.143213C42.4297 0.106142 42.4418 0.075462 42.466 0.0511738C42.4932 0.0281642 42.5295 0.0153809 42.5749 0.0153809H43.2588C43.3435 0.0153809 43.4222 0.035834 43.4948 0.0767402C43.5674 0.11509 43.6249 0.166222 43.6703 0.230139C43.7142 0.295333 43.7369 0.368197 43.7369 0.450009C43.7369 0.519039 43.7142 0.585511 43.6703 0.649427C43.6294 0.714622 43.575 0.765755 43.5069 0.802826C43.6068 0.861628 43.6612 0.939606 43.6703 1.03804C43.6733 1.06232 43.6763 1.08406 43.6763 1.10451C43.6839 1.14542 43.69 1.1761 43.6945 1.19655C43.7021 1.21444 43.7157 1.22595 43.7369 1.23234ZM43.2527 0.710787C43.28 0.710787 43.3072 0.699282 43.3314 0.674994C43.3586 0.651984 43.3813 0.621304 43.398 0.582955C43.4176 0.545884 43.4282 0.504977 43.4282 0.460236C43.4282 0.423165 43.4176 0.38865 43.398 0.35797C43.3813 0.324734 43.3586 0.299168 43.3314 0.281271C43.3072 0.260818 43.28 0.250592 43.2527 0.250592H42.7262V0.710787H43.2527Z" fill="#292929"/>
<path d="M45.0358 0.0153809C45.0797 0.0153809 45.1145 0.0281642 45.1387 0.0511738C45.166 0.0716269 45.1811 0.0997501 45.1811 0.132986C45.1811 0.171336 45.166 0.199459 45.1387 0.219912C45.1145 0.240365 45.0797 0.250592 45.0358 0.250592H44.6606V1.30904C44.6606 1.34355 44.644 1.37296 44.6122 1.39597C44.5835 1.42025 44.5472 1.43176 44.5033 1.43176C44.4579 1.43176 44.4216 1.42025 44.3944 1.39597C44.3656 1.37296 44.352 1.34355 44.352 1.30904V0.250592H43.9768C43.9314 0.250592 43.8951 0.240365 43.8679 0.219912C43.8436 0.196902 43.8315 0.167501 43.8315 0.132986C43.8315 0.0997501 43.8452 0.0716269 43.8739 0.0511738C43.9011 0.0281642 43.9359 0.0153809 43.9768 0.0153809H45.0358Z" fill="#292929"/>
<path d="M37.6258 2.91725C37.6258 3.05019 37.5895 3.17291 37.5168 3.2854C37.4472 3.39534 37.3504 3.48226 37.2264 3.54618C37.1053 3.61138 36.9676 3.64333 36.8148 3.64333C36.6575 3.64333 36.5153 3.61138 36.3912 3.54618C36.2702 3.48226 36.1749 3.39534 36.1068 3.2854C36.0372 3.17291 36.0039 3.05019 36.0039 2.91725C36.0039 2.7843 36.0372 2.66158 36.1068 2.54909C36.1749 2.4366 36.2702 2.34967 36.3912 2.28831C36.5153 2.2244 36.6575 2.19116 36.8148 2.19116C36.9676 2.19116 37.1053 2.2244 37.2264 2.28831C37.3504 2.34967 37.4472 2.4366 37.5168 2.54909C37.5895 2.66158 37.6258 2.7843 37.6258 2.91725ZM37.3171 2.91725C37.3171 2.82521 37.2944 2.7434 37.2506 2.67181C37.2052 2.59767 37.1447 2.53887 37.069 2.49796C36.9919 2.4545 36.9071 2.43149 36.8148 2.43149C36.718 2.43149 36.6303 2.4545 36.5546 2.49796C36.4775 2.53887 36.4169 2.59767 36.3731 2.67181C36.3322 2.7434 36.3125 2.82521 36.3125 2.91725C36.3125 3.00673 36.3322 3.08854 36.3731 3.16269C36.4169 3.23811 36.4775 3.29819 36.5546 3.34165C36.6303 3.38256 36.718 3.40301 36.8148 3.40301C36.9071 3.40301 36.9919 3.38128 37.069 3.33654C37.1447 3.29307 37.2052 3.23427 37.2506 3.16269C37.2944 3.08854 37.3171 3.00673 37.3171 2.91725Z" fill="#292929"/>
<path d="M38.4077 2.52417C38.4561 2.52417 38.4954 2.53695 38.5287 2.55996C38.565 2.58042 38.5832 2.60598 38.5832 2.63666C38.5832 2.67757 38.5681 2.7108 38.5408 2.73381C38.5166 2.75427 38.4864 2.76449 38.45 2.76449C38.4258 2.76449 38.3986 2.75938 38.3714 2.74915C38.3668 2.74915 38.3547 2.74788 38.3351 2.74404C38.3184 2.73765 38.3018 2.73381 38.2867 2.73381C38.2413 2.73381 38.1989 2.7466 38.1596 2.76961C38.1233 2.79006 38.093 2.8233 38.0688 2.86676C38.0446 2.9115 38.0325 2.96263 38.0325 3.02016V3.50081C38.0325 3.53532 38.0173 3.56472 37.9901 3.58773C37.9659 3.61202 37.9311 3.62352 37.8872 3.62352C37.8464 3.62352 37.8116 3.61202 37.7844 3.58773C37.7602 3.56472 37.748 3.53532 37.748 3.50081V2.66734C37.748 2.63027 37.7602 2.60087 37.7844 2.58042C37.8116 2.55741 37.8464 2.54462 37.8872 2.54462C37.9311 2.54462 37.9659 2.55741 37.9901 2.58042C38.0173 2.60087 38.0325 2.63027 38.0325 2.66734V2.69291C38.0688 2.63922 38.1202 2.59831 38.1898 2.57019C38.2579 2.53951 38.3305 2.52417 38.4077 2.52417Z" fill="#292929"/>
<path d="M39.6885 2.13013C39.7279 2.13013 39.7611 2.14291 39.7854 2.16592C39.8126 2.18637 39.8277 2.21577 39.8277 2.25285V3.50049C39.8277 3.535 39.8126 3.5644 39.7854 3.58741C39.7611 3.6117 39.7279 3.6232 39.6885 3.6232C39.6431 3.6232 39.6068 3.61298 39.5796 3.59252C39.5554 3.56951 39.5433 3.53884 39.5433 3.50049C39.5024 3.54139 39.448 3.57591 39.3799 3.60275C39.3148 3.6296 39.2437 3.64366 39.1681 3.64366C39.0591 3.64366 38.9593 3.62065 38.8715 3.57207C38.7823 3.52477 38.7112 3.4583 38.6597 3.37265C38.6068 3.28828 38.5811 3.19241 38.5811 3.08631C38.5811 2.97765 38.6053 2.8805 38.6537 2.79485C38.7051 2.71048 38.7762 2.64401 38.8655 2.59544C38.9532 2.54814 39.0501 2.52385 39.156 2.52385C39.2316 2.52385 39.3042 2.53663 39.3738 2.55964C39.4419 2.58393 39.4979 2.61333 39.5433 2.64657V2.25285C39.5433 2.21961 39.5554 2.19021 39.5796 2.16592C39.6068 2.14291 39.6431 2.13013 39.6885 2.13013ZM39.2044 3.41867C39.3088 3.41867 39.3935 3.38799 39.4586 3.32663C39.5221 3.26272 39.5554 3.18218 39.5554 3.08631C39.5554 2.98788 39.5221 2.90607 39.4586 2.84087C39.3935 2.77696 39.3088 2.74372 39.2044 2.74372C39.103 2.74372 39.0183 2.77696 38.9502 2.84087C38.8852 2.90607 38.8534 2.98788 38.8534 3.08631C38.8534 3.18218 38.8852 3.26272 38.9502 3.32663C39.0138 3.38799 39.0985 3.41867 39.2044 3.41867Z" fill="#292929"/>
<path d="M41.1554 3.05595C41.1554 3.09047 41.1402 3.11731 41.113 3.13776C41.0843 3.15822 41.0495 3.16844 41.0101 3.16844H40.2234C40.2431 3.2477 40.2869 3.30906 40.3565 3.35252C40.4246 3.39726 40.5018 3.41899 40.5865 3.41899C40.65 3.41899 40.7015 3.41644 40.7378 3.40877C40.7741 3.39854 40.8013 3.38831 40.8225 3.37809C40.8467 3.3653 40.8619 3.35636 40.8709 3.35252C40.8982 3.33974 40.9254 3.33207 40.9496 3.33207C40.9859 3.33207 41.0131 3.34229 41.0343 3.36275C41.0585 3.3832 41.0706 3.40749 41.0706 3.43433C41.0706 3.47268 41.0479 3.50464 41.0041 3.53149C40.9587 3.56217 40.8982 3.59029 40.8225 3.6133C40.7499 3.63375 40.6743 3.64398 40.5986 3.64398C40.4655 3.64398 40.3475 3.62097 40.2476 3.57239C40.1508 3.52509 40.0736 3.4599 40.0176 3.37809C39.9647 3.29627 39.939 3.20296 39.939 3.09686C39.939 2.98181 39.9662 2.88082 40.0237 2.79517C40.0797 2.70697 40.1538 2.6405 40.2476 2.59576C40.3444 2.54846 40.4443 2.52417 40.5502 2.52417C40.6546 2.52417 40.7529 2.54846 40.8467 2.59576C40.9436 2.64433 41.0177 2.70825 41.0706 2.79006C41.1266 2.87187 41.1554 2.96136 41.1554 3.05595ZM40.5502 2.74404C40.3686 2.74404 40.2597 2.81818 40.2234 2.96391H40.8528V2.94857C40.8437 2.89488 40.8104 2.84631 40.7499 2.8054C40.6924 2.76449 40.6258 2.74404 40.5502 2.74404Z" fill="#292929"/>
<path d="M41.9262 2.52417C41.9747 2.52417 42.014 2.53695 42.0473 2.55996C42.0836 2.58042 42.1017 2.60598 42.1017 2.63666C42.1017 2.67757 42.0866 2.7108 42.0594 2.73381C42.0352 2.75427 42.0049 2.76449 41.9686 2.76449C41.9444 2.76449 41.9172 2.75938 41.8899 2.74915C41.8854 2.74915 41.8733 2.74788 41.8536 2.74404C41.837 2.73765 41.8203 2.73381 41.8052 2.73381C41.7598 2.73381 41.7175 2.7466 41.6781 2.76961C41.6418 2.79006 41.6116 2.8233 41.5873 2.86676C41.5631 2.9115 41.551 2.96263 41.551 3.02016V3.50081C41.551 3.53532 41.5359 3.56472 41.5087 3.58773C41.4845 3.61202 41.4497 3.62352 41.4058 3.62352C41.3649 3.62352 41.3301 3.61202 41.3029 3.58773C41.2787 3.56472 41.2666 3.53532 41.2666 3.50081V2.66734C41.2666 2.63027 41.2787 2.60087 41.3029 2.58042C41.3301 2.55741 41.3649 2.54462 41.4058 2.54462C41.4497 2.54462 41.4845 2.55741 41.5087 2.58042C41.5359 2.60087 41.551 2.63027 41.551 2.66734V2.69291C41.5873 2.63922 41.6388 2.59831 41.7084 2.57019C41.7765 2.53951 41.8491 2.52417 41.9262 2.52417Z" fill="#292929"/>
<path d="M42.4391 3.50059C42.4391 3.53511 42.424 3.56451 42.3968 3.58752C42.3725 3.61181 42.3393 3.62331 42.2999 3.62331C42.2545 3.62331 42.2182 3.61181 42.191 3.58752C42.1668 3.56451 42.1547 3.53511 42.1547 3.50059V2.66713C42.1547 2.63006 42.1668 2.60066 42.191 2.5802C42.2182 2.5572 42.2545 2.54441 42.2999 2.54441C42.3393 2.54441 42.3725 2.5572 42.3968 2.5802C42.424 2.60066 42.4391 2.63006 42.4391 2.66713V3.50059ZM42.2939 2.41147C42.2409 2.41147 42.2031 2.40508 42.1789 2.39101C42.1547 2.3744 42.1426 2.34755 42.1426 2.3092V2.27341C42.1426 2.23634 42.1547 2.21077 42.1789 2.19671C42.2031 2.18009 42.2409 2.17114 42.2939 2.17114C42.3499 2.17114 42.3877 2.18009 42.4089 2.19671C42.4331 2.21077 42.4452 2.23634 42.4452 2.27341V2.3092C42.4452 2.35011 42.4331 2.37823 42.4089 2.39101C42.3877 2.40508 42.3499 2.41147 42.2939 2.41147Z" fill="#292929"/>
<path d="M43.2893 2.52417C43.4497 2.52417 43.5616 2.56508 43.6222 2.64689C43.6857 2.7287 43.719 2.84119 43.719 2.98436V3.50081C43.719 3.53532 43.7039 3.56472 43.6766 3.58773C43.6479 3.61202 43.6131 3.62352 43.5737 3.62352C43.5329 3.62352 43.4981 3.61202 43.4709 3.58773C43.4421 3.56472 43.4285 3.53532 43.4285 3.50081V2.98436C43.4285 2.91022 43.4104 2.85142 43.374 2.81051C43.3377 2.76705 43.2742 2.74404 43.1864 2.74404C43.0926 2.74404 43.02 2.76833 42.9686 2.81563C42.9156 2.86037 42.8899 2.91661 42.8899 2.98436V3.50081C42.8899 3.53532 42.8748 3.56472 42.8475 3.58773C42.8233 3.61202 42.7885 3.62352 42.7447 3.62352C42.7038 3.62352 42.669 3.61202 42.6418 3.58773C42.6176 3.56472 42.6055 3.53532 42.6055 3.50081V2.66734C42.6055 2.63027 42.6176 2.60087 42.6418 2.58042C42.669 2.55741 42.7038 2.54462 42.7447 2.54462C42.7885 2.54462 42.8233 2.55741 42.8475 2.58042C42.8748 2.60087 42.8899 2.63027 42.8899 2.66734V2.69802C42.9338 2.65072 42.9898 2.60982 43.0593 2.5753C43.1274 2.54207 43.2046 2.52417 43.2893 2.52417Z" fill="#292929"/>
<path d="M44.9578 2.52417C44.9972 2.52417 45.0305 2.53695 45.0547 2.55996C45.0819 2.58042 45.097 2.60982 45.097 2.64689V3.54683C45.097 3.71045 45.0365 3.83061 44.9155 3.90987C44.7975 3.98785 44.6462 4.02747 44.4616 4.02747C44.4132 4.02747 44.3466 4.0198 44.2619 4.00702C44.1802 3.99296 44.1227 3.9789 44.0864 3.96611C44.0092 3.93799 43.9714 3.89964 43.9714 3.84851C43.9714 3.83828 43.9729 3.82806 43.9775 3.81783C43.985 3.78715 44.0017 3.76286 44.0259 3.74624C44.0501 3.73218 44.0743 3.72579 44.0985 3.72579C44.1136 3.72579 44.1303 3.72707 44.1469 3.7309C44.1499 3.73346 44.1893 3.74752 44.2619 3.77181C44.3345 3.79482 44.4011 3.8076 44.4616 3.8076C44.5781 3.8076 44.6643 3.78715 44.7218 3.74624C44.7823 3.70534 44.8126 3.64909 44.8126 3.57751V3.48035C44.7763 3.52126 44.7218 3.55961 44.6492 3.59285C44.5796 3.62608 44.5055 3.64398 44.4253 3.64398C44.3118 3.64398 44.2089 3.62097 44.1167 3.57239C44.0274 3.52509 43.9563 3.45862 43.9048 3.37297C43.8519 3.2886 43.8262 3.19273 43.8262 3.08663C43.8262 2.97797 43.8519 2.88082 43.9048 2.79517C43.9563 2.7108 44.0274 2.64433 44.1167 2.59576C44.2044 2.54846 44.3043 2.52417 44.4132 2.52417C44.4979 2.52417 44.5736 2.53823 44.6432 2.56508C44.7112 2.5932 44.7672 2.62644 44.8126 2.66734V2.64689C44.8126 2.61365 44.8247 2.58425 44.8489 2.55996C44.8761 2.53695 44.9125 2.52417 44.9578 2.52417ZM44.4616 3.41899C44.566 3.41899 44.6522 3.38831 44.7218 3.32695C44.7899 3.26304 44.8247 3.1825 44.8247 3.08663C44.8247 2.9882 44.7899 2.90639 44.7218 2.84119C44.6522 2.77728 44.566 2.74404 44.4616 2.74404C44.3527 2.74404 44.2634 2.77728 44.1953 2.84119C44.1303 2.90639 44.0985 2.9882 44.0985 3.08663C44.0985 3.1825 44.1303 3.26304 44.1953 3.32695C44.2634 3.38831 44.3527 3.41899 44.4616 3.41899Z" fill="#292929"/>
</svg>
