<svg width="20" height="23" viewBox="0 0 20 23" fill="none" xmlns="http://www.w3.org/2000/svg">
<path id="Vector" d="M18.8457 8.20811C18.7408 8.26937 16.2429 9.56114 16.2429 12.4254C16.3607 15.6919 19.3951 16.8374 19.4472 16.8374C19.3951 16.8986 18.9891 18.3979 17.7862 19.9695C16.8315 21.3233 15.772 22.6883 14.1631 22.6883C12.6326 22.6883 12.0832 21.7861 10.3173 21.7861C8.42076 21.7861 7.88414 22.6883 6.43222 22.6883C4.82331 22.6883 3.68523 21.2503 2.6786 19.9092C1.37076 18.1539 0.25916 15.3993 0.219919 12.7545C0.193466 11.353 0.481817 9.97524 1.21378 8.80517C2.24691 7.17139 4.09123 6.06244 6.10546 6.0259C7.64872 5.97742 9.02221 7.0133 9.96402 7.0133C10.8667 7.0133 12.5542 6.0259 14.4633 6.0259C15.2874 6.02672 17.485 6.25802 18.8457 8.20811ZM9.83354 5.74612C9.55884 4.4662 10.3173 3.18633 11.0237 2.36989C11.9262 1.38256 13.3517 0.712402 14.581 0.712402C14.6596 1.99229 14.1622 3.24753 13.2733 4.16174C12.4756 5.14906 11.1021 5.8924 9.83354 5.74612Z" fill="#3E3737"/>
</svg>
