<svg width="43" height="42" viewBox="0 0 43 42" fill="none" xmlns="http://www.w3.org/2000/svg">
<circle cx="21.5" cy="21" r="20.5" fill="white" stroke="#E2E8F0"/>
<path d="M30.2938 25.4944C29.7734 24.5981 29 22.0622 29 18.75C29 16.7609 28.2098 14.8532 26.8033 13.4467C25.3968 12.0402 23.4891 11.25 21.5 11.25C19.5109 11.25 17.6032 12.0402 16.1967 13.4467C14.7902 14.8532 14 16.7609 14 18.75C14 22.0631 13.2256 24.5981 12.7053 25.4944C12.5725 25.7222 12.502 25.9811 12.5011 26.2449C12.5002 26.5086 12.5689 26.768 12.7002 26.9967C12.8315 27.2255 13.0208 27.4156 13.249 27.5478C13.4772 27.6801 13.7362 27.7498 14 27.75H17.8259C17.999 28.5967 18.4592 29.3577 19.1286 29.9042C19.7981 30.4507 20.6358 30.7492 21.5 30.7492C22.3642 30.7492 23.2019 30.4507 23.8714 29.9042C24.5409 29.3577 25.001 28.5967 25.1741 27.75H29C29.2637 27.7496 29.5226 27.6798 29.7507 27.5475C29.9788 27.4151 30.168 27.225 30.2992 26.9963C30.4303 26.7676 30.4989 26.5083 30.498 26.2446C30.497 25.9809 30.4266 25.7222 30.2938 25.4944ZM21.5 29.25C21.0348 29.2499 20.5812 29.1055 20.2014 28.8369C19.8216 28.5683 19.5344 28.1886 19.3794 27.75H23.6206C23.4656 28.1886 23.1784 28.5683 22.7986 28.8369C22.4189 29.1055 21.9652 29.2499 21.5 29.25ZM14 26.25C14.7219 25.0087 15.5 22.1325 15.5 18.75C15.5 17.1587 16.1322 15.6326 17.2574 14.5074C18.3826 13.3821 19.9087 12.75 21.5 12.75C23.0913 12.75 24.6174 13.3821 25.7427 14.5074C26.8679 15.6326 27.5 17.1587 27.5 18.75C27.5 22.1297 28.2763 25.0059 29 26.25H14Z" fill="#475569"/>
</svg>
