<svg width="43" height="42" viewBox="0 0 43 42" fill="none" xmlns="http://www.w3.org/2000/svg">
<circle cx="21.5" cy="21" r="20.5" fill="white" stroke="#E2E8F0"/>
<path d="M21.875 11.25C19.3894 11.2527 17.0065 12.2413 15.2489 13.9989C13.4913 15.7565 12.5027 18.1394 12.5 20.625V28.5309C12.5005 28.9204 12.6554 29.2938 12.9308 29.5692C13.2062 29.8446 13.5796 29.9995 13.9691 30H21.875C24.3614 30 26.746 29.0123 28.5041 27.2541C30.2623 25.496 31.25 23.1114 31.25 20.625C31.25 18.1386 30.2623 15.754 28.5041 13.9959C26.746 12.2377 24.3614 11.25 21.875 11.25ZM21.875 28.5H14V20.625C14 19.0675 14.4619 17.5449 15.3272 16.2499C16.1925 14.9548 17.4224 13.9455 18.8614 13.3494C20.3003 12.7534 21.8837 12.5975 23.4113 12.9013C24.9389 13.2052 26.3421 13.9552 27.4435 15.0565C28.5448 16.1579 29.2948 17.5611 29.5987 19.0887C29.9025 20.6163 29.7466 22.1997 29.1506 23.6386C28.5545 25.0776 27.5452 26.3075 26.2501 27.1728C24.9551 28.0381 23.4325 28.5 21.875 28.5ZM23 21C23 21.2225 22.934 21.44 22.8104 21.625C22.6868 21.81 22.5111 21.9542 22.3055 22.0394C22.1 22.1245 21.8738 22.1468 21.6555 22.1034C21.4373 22.06 21.2368 21.9528 21.0795 21.7955C20.9222 21.6382 20.815 21.4377 20.7716 21.2195C20.7282 21.0012 20.7505 20.775 20.8356 20.5695C20.9208 20.3639 21.065 20.1882 21.25 20.0646C21.435 19.941 21.6525 19.875 21.875 19.875C22.1734 19.875 22.4595 19.9935 22.6705 20.2045C22.8815 20.4155 23 20.7016 23 21ZM18.875 21C18.875 21.2225 18.809 21.44 18.6854 21.625C18.5618 21.81 18.3861 21.9542 18.1805 22.0394C17.975 22.1245 17.7488 22.1468 17.5305 22.1034C17.3123 22.06 17.1118 21.9528 16.9545 21.7955C16.7972 21.6382 16.69 21.4377 16.6466 21.2195C16.6032 21.0012 16.6255 20.775 16.7106 20.5695C16.7958 20.3639 16.94 20.1882 17.125 20.0646C17.31 19.941 17.5275 19.875 17.75 19.875C18.0484 19.875 18.3345 19.9935 18.5455 20.2045C18.7565 20.4155 18.875 20.7016 18.875 21ZM27.125 21C27.125 21.2225 27.059 21.44 26.9354 21.625C26.8118 21.81 26.6361 21.9542 26.4305 22.0394C26.225 22.1245 25.9988 22.1468 25.7805 22.1034C25.5623 22.06 25.3618 21.9528 25.2045 21.7955C25.0472 21.6382 24.94 21.4377 24.8966 21.2195C24.8532 21.0012 24.8755 20.775 24.9606 20.5695C25.0458 20.3639 25.19 20.1882 25.375 20.0646C25.56 19.941 25.7775 19.875 26 19.875C26.2984 19.875 26.5845 19.9935 26.7955 20.2045C27.0065 20.4155 27.125 20.7016 27.125 21Z" fill="#475569"/>
</svg>
