<svg width="27" height="26" viewBox="0 0 27 26" fill="none" xmlns="http://www.w3.org/2000/svg">
<path d="M13.5003 24.2C19.6859 24.2 24.7003 19.1856 24.7003 13C24.7003 6.81446 19.6859 1.80005 13.5003 1.80005C7.3147 1.80005 2.30029 6.81446 2.30029 13C2.30029 19.1856 7.3147 24.2 13.5003 24.2Z" fill="url(#paint0_linear_2867_4035)"/>
<path d="M17.6712 16.4254L18.1687 13.2642H15.0564V11.2137C15.0564 10.3487 15.4904 9.50498 16.8844 9.50498H18.3002V6.81369C18.3002 6.81369 17.0158 6.6001 15.7884 6.6001C13.224 6.6001 11.5496 8.11445 11.5496 10.8548V13.2642H8.7002V16.4254H11.5496V24.0677C12.1216 24.1553 12.7068 24.2001 13.3029 24.2001C13.8991 24.2001 14.4844 24.1553 15.0564 24.0677V16.4254H17.6712Z" fill="white"/>
<defs>
<linearGradient id="paint0_linear_2867_4035" x1="13.5003" y1="1.80005" x2="13.5003" y2="24.1336" gradientUnits="userSpaceOnUse">
<stop stop-color="#18ACFE"/>
<stop offset="1" stop-color="#0163E0"/>
</linearGradient>
</defs>
</svg>
