<svg width="26" height="27" viewBox="0 0 26 27" fill="none" xmlns="http://www.w3.org/2000/svg">
<g id="google">
<path id="Vector" d="M24.3679 13.7483C24.3679 12.8274 24.2917 12.1554 24.1266 11.4585H13.3965V15.6149H19.6949C19.5679 16.6479 18.8822 18.2034 17.3583 19.2487L17.337 19.3879L20.7297 21.9635L20.9647 21.9865C23.1234 20.0327 24.3679 17.158 24.3679 13.7483Z" fill="#4285F4"/>
<path id="Vector_2" d="M13.396 24.6993C16.4817 24.6993 19.0721 23.7037 20.9643 21.9864L17.3579 19.2485C16.3928 19.9081 15.0976 20.3685 13.396 20.3685C10.3739 20.3685 7.8088 18.4148 6.89443 15.7144L6.7604 15.7255L3.23266 18.4011L3.18652 18.5268C5.06587 22.1855 8.9262 24.6993 13.396 24.6993Z" fill="#34A853"/>
<path id="Vector_3" d="M6.89471 15.7147C6.65345 15.0178 6.51381 14.2711 6.51381 13.4996C6.51381 12.728 6.65345 11.9813 6.88201 11.2845L6.87562 11.136L3.30366 8.41748L3.1868 8.47196C2.41223 9.99022 1.96777 11.6951 1.96777 13.4996C1.96777 15.304 2.41223 17.0089 3.1868 18.5271L6.89471 15.7147Z" fill="#FBBC05"/>
<path id="Vector_4" d="M13.3961 6.63069C15.5421 6.63069 16.9897 7.53913 17.8152 8.29829L21.0405 5.21205C19.0596 3.40761 16.4818 2.30005 13.3961 2.30005C8.9262 2.30005 5.06588 4.81381 3.18652 8.47244L6.88176 11.2849C7.80883 8.58449 10.3739 6.63069 13.3961 6.63069Z" fill="#EB4335"/>
</g>
</svg>
