<svg width="83" height="84" viewBox="0 0 83 84" fill="none" xmlns="http://www.w3.org/2000/svg">
<circle cx="41.5" cy="41.7729" r="41.2729" fill="#FEF2F2"/>
<path d="M55.1001 46.0113L44.1689 27.0276C43.8957 26.5625 43.5057 26.1769 43.0376 25.9089C42.5695 25.641 42.0395 25.5 41.5001 25.5C40.9607 25.5 40.4307 25.641 39.9626 25.9089C39.4945 26.1769 39.1045 26.5625 38.8314 27.0276L27.9001 46.0113C27.6373 46.4612 27.4988 46.9728 27.4988 47.4938C27.4988 48.0148 27.6373 48.5265 27.9001 48.9763C28.1698 49.4442 28.5591 49.832 29.0281 50.0997C29.4971 50.3675 30.0288 50.5057 30.5689 50.5001H52.4314C52.971 50.5052 53.5022 50.3669 53.9707 50.0991C54.4393 49.8314 54.8282 49.4439 55.0976 48.9763C55.3608 48.5267 55.4998 48.0152 55.5002 47.4942C55.5007 46.9732 55.3626 46.4614 55.1001 46.0113ZM53.3664 47.9751C53.2711 48.1376 53.1343 48.2719 52.97 48.3642C52.8057 48.4564 52.6198 48.5033 52.4314 48.5001H30.5689C30.3805 48.5033 30.1946 48.4564 30.0303 48.3642C29.866 48.2719 29.7292 48.1376 29.6339 47.9751C29.5476 47.8289 29.502 47.6623 29.502 47.4926C29.502 47.3228 29.5476 47.1562 29.6339 47.0101L40.5651 28.0263C40.6623 27.8645 40.7998 27.7307 40.9641 27.6377C41.1283 27.5448 41.3139 27.4959 41.5026 27.4959C41.6914 27.4959 41.8769 27.5448 42.0412 27.6377C42.2055 27.7307 42.3429 27.8645 42.4401 28.0263L53.3714 47.0101C53.4569 47.1567 53.5016 47.3235 53.5007 47.4933C53.4998 47.663 53.4534 47.8294 53.3664 47.9751ZM40.5001 40.5001V35.5001C40.5001 35.2349 40.6055 34.9805 40.793 34.793C40.9805 34.6054 41.2349 34.5001 41.5001 34.5001C41.7653 34.5001 42.0197 34.6054 42.2072 34.793C42.3948 34.9805 42.5001 35.2349 42.5001 35.5001V40.5001C42.5001 40.7653 42.3948 41.0197 42.2072 41.2072C42.0197 41.3947 41.7653 41.5001 41.5001 41.5001C41.2349 41.5001 40.9805 41.3947 40.793 41.2072C40.6055 41.0197 40.5001 40.7653 40.5001 40.5001ZM43.0001 45.0001C43.0001 45.2968 42.9121 45.5868 42.7473 45.8334C42.5825 46.0801 42.3482 46.2724 42.0741 46.3859C41.8001 46.4994 41.4985 46.5291 41.2075 46.4713C40.9165 46.4134 40.6492 46.2705 40.4395 46.0607C40.2297 45.851 40.0868 45.5837 40.0289 45.2927C39.9711 45.0017 40.0008 44.7001 40.1143 44.4261C40.2278 44.152 40.4201 43.9177 40.6668 43.7529C40.9134 43.5881 41.2034 43.5001 41.5001 43.5001C41.8979 43.5001 42.2795 43.6581 42.5608 43.9394C42.8421 44.2207 43.0001 44.6023 43.0001 45.0001Z" fill="#DC2626"/>
</svg>
